<svg width="147" height="166" viewBox="0 0 147 166" fill="none" xmlns="http://www.w3.org/2000/svg">
<path d="M65.85 122C65.85 135.142 52.5187 145.85 36 145.85C19.4813 145.85 6.15 135.142 6.15 122C6.15 108.858 19.4813 98.15 36 98.15C52.5187 98.15 65.85 108.858 65.85 122Z" fill="#29A674" stroke="#29A674" stroke-width="0.3"/>
<path d="M58.85 150C58.85 151.31 57.9998 152.519 56.5774 153.408C55.157 154.296 53.1855 154.85 51 154.85C48.8145 154.85 46.843 154.296 45.4226 153.408C44.0002 152.519 43.15 151.31 43.15 150C43.15 148.69 44.0002 147.481 45.4226 146.592C46.843 145.704 48.8145 145.15 51 145.15C53.1855 145.15 55.157 145.704 56.5774 146.592C57.9998 147.481 58.85 148.69 58.85 150Z" fill="#29A674" stroke="#29A674" stroke-width="0.3"/>
<path d="M61.85 159C61.85 159.755 61.3391 160.464 60.4584 160.993C59.5806 161.519 58.3582 161.85 57 161.85C55.6418 161.85 54.4194 161.519 53.5416 160.993C52.6609 160.464 52.15 159.755 52.15 159C52.15 158.245 52.6609 157.536 53.5416 157.007C54.4194 156.481 55.6418 156.15 57 156.15C58.3582 156.15 59.5806 156.481 60.4584 157.007C61.3391 157.536 61.85 158.245 61.85 159Z" fill="#29A674" stroke="#29A674" stroke-width="0.3"/>
<path d="M63.85 164.5C63.85 164.841 63.619 165.175 63.1906 165.432C62.7652 165.687 62.1678 165.85 61.5 165.85C60.8322 165.85 60.2348 165.687 59.8094 165.432C59.381 165.175 59.15 164.841 59.15 164.5C59.15 164.159 59.381 163.825 59.8094 163.568C60.2348 163.313 60.8322 163.15 61.5 163.15C62.1678 163.15 62.7652 163.313 63.1906 163.568C63.619 163.825 63.85 164.159 63.85 164.5Z" fill="#29A674" stroke="#29A674" stroke-width="0.3"/>
<path d="M25.6705 126.868V129H16.721V126.868H25.6705ZM25.4262 118.652L17.6315 129H15.8994V127.279L23.6496 116.986H25.4262V118.652ZM24.3936 116.986V119.118H16.0326V116.986H24.3936ZM37.1071 126.868V129H28.1577V126.868H37.1071ZM36.8628 118.652L29.0682 129H27.336V127.279L35.0863 116.986H36.8628V118.652ZM35.8302 116.986V119.118H27.4692V116.986H35.8302ZM48.5437 126.868V129H39.5943V126.868H48.5437ZM48.2994 118.652L40.5048 129H38.7726V127.279L46.5229 116.986H48.2994V118.652ZM47.2668 116.986V119.118H38.9059V116.986H47.2668ZM50.7977 127.668C50.7977 127.253 50.9384 126.905 51.2197 126.624C51.501 126.335 51.8822 126.191 52.3633 126.191C52.8519 126.191 53.2331 126.335 53.507 126.624C53.7883 126.905 53.9289 127.253 53.9289 127.668C53.9289 128.082 53.7883 128.43 53.507 128.711C53.2331 128.993 52.8519 129.133 52.3633 129.133C51.8822 129.133 51.501 128.993 51.2197 128.711C50.9384 128.43 50.7977 128.082 50.7977 127.668ZM57.1267 127.668C57.1267 127.253 57.2674 126.905 57.5487 126.624C57.83 126.335 58.2112 126.191 58.6923 126.191C59.1809 126.191 59.5621 126.335 59.836 126.624C60.1173 126.905 60.2579 127.253 60.2579 127.668C60.2579 128.082 60.1173 128.43 59.836 128.711C59.5621 128.993 59.1809 129.133 58.6923 129.133C58.2112 129.133 57.83 128.993 57.5487 128.711C57.2674 128.43 57.1267 128.082 57.1267 127.668Z" fill="white"/>
</svg>
