<svg width="189" height="70" viewBox="0 0 189 70" fill="none" xmlns="http://www.w3.org/2000/svg">
<path d="M65.85 26C65.85 39.1425 52.5187 49.85 36 49.85C19.4813 49.85 6.15 39.1425 6.15 26C6.15 12.8575 19.4813 2.15 36 2.15C52.5187 2.15 65.85 12.8575 65.85 26Z" fill="#019197" stroke="#196647" stroke-width="0.3"/>
<path d="M58.85 54C58.85 55.3103 57.9998 56.5193 56.5774 57.4083C55.157 58.296 53.1855 58.85 51 58.85C48.8145 58.85 46.843 58.296 45.4226 57.4083C44.0002 56.5193 43.15 55.3103 43.15 54C43.15 52.6897 44.0002 51.4807 45.4226 50.5917C46.843 49.704 48.8145 49.15 51 49.15C53.1855 49.15 55.157 49.704 56.5774 50.5917C57.9998 51.4807 58.85 52.6897 58.85 54Z" fill="#019197" stroke="#196647" stroke-width="0.3"/>
<path d="M61.85 63C61.85 63.755 61.3391 64.4642 60.4584 64.9927C59.5806 65.5194 58.3582 65.85 57 65.85C55.6418 65.85 54.4194 65.5194 53.5416 64.9927C52.6609 64.4642 52.15 63.755 52.15 63C52.15 62.245 52.6609 61.5358 53.5416 61.0073C54.4194 60.4806 55.6418 60.15 57 60.15C58.3582 60.15 59.5806 60.4806 60.4584 61.0073C61.3391 61.5358 61.85 62.245 61.85 63Z" fill="#019197" stroke="#196647" stroke-width="0.3"/>
<path d="M63.85 68.5C63.85 68.8408 63.619 69.175 63.1906 69.432C62.7652 69.6873 62.1678 69.85 61.5 69.85C60.8322 69.85 60.2348 69.6873 59.8094 69.432C59.381 69.175 59.15 68.8408 59.15 68.5C59.15 68.1592 59.381 67.825 59.8094 67.568C60.2348 67.3127 60.8322 67.15 61.5 67.15C62.1678 67.15 62.7652 67.3127 63.1906 67.568C63.619 67.825 63.85 68.1592 63.85 68.5Z" fill="#019197" stroke="#196647" stroke-width="0.3"/>
<path d="M25.6705 30.8681V33H16.721V30.8681H25.6705ZM25.4262 22.6515L17.6315 33H15.8994V31.279L23.6496 20.986H25.4262V22.6515ZM24.3936 20.986V23.1179H16.0326V20.986H24.3936ZM37.1071 30.8681V33H28.1577V30.8681H37.1071ZM36.8628 22.6515L29.0682 33H27.336V31.279L35.0863 20.986H36.8628V22.6515ZM35.8302 20.986V23.1179H27.4692V20.986H35.8302ZM48.5437 30.8681V33H39.5943V30.8681H48.5437ZM48.2994 22.6515L40.5048 33H38.7726V31.279L46.5229 20.986H48.2994V22.6515ZM47.2668 20.986V23.1179H38.9059V20.986H47.2668ZM50.7977 31.6676C50.7977 31.253 50.9384 30.9051 51.2197 30.6238C51.501 30.3352 51.8822 30.1908 52.3633 30.1908C52.8519 30.1908 53.2331 30.3352 53.507 30.6238C53.7883 30.9051 53.9289 31.253 53.9289 31.6676C53.9289 32.0821 53.7883 32.43 53.507 32.7113C53.2331 32.9926 52.8519 33.1332 52.3633 33.1332C51.8822 33.1332 51.501 32.9926 51.2197 32.7113C50.9384 32.43 50.7977 32.0821 50.7977 31.6676ZM57.1267 31.6676C57.1267 31.253 57.2674 30.9051 57.5487 30.6238C57.83 30.3352 58.2112 30.1908 58.6923 30.1908C59.1809 30.1908 59.5621 30.3352 59.836 30.6238C60.1173 30.9051 60.2579 31.253 60.2579 31.6676C60.2579 32.0821 60.1173 32.43 59.836 32.7113C59.5621 32.9926 59.1809 33.1332 58.6923 33.1332C58.2112 33.1332 57.83 32.9926 57.5487 32.7113C57.2674 32.43 57.1267 32.0821 57.1267 31.6676Z" fill="white"/>
</svg>
