<svg width="147" height="166" viewBox="0 0 147 166" fill="none" xmlns="http://www.w3.org/2000/svg">
<ellipse cx="51.0709" cy="98.9045" rx="5.57138" ry="8.04755" fill="#C9B095"/>
<path d="M56.4873 98.9045C56.4873 101.099 55.8711 103.079 54.883 104.507C53.8945 105.935 52.5441 106.797 51.0709 106.797C49.5976 106.797 48.2473 105.935 47.2588 104.507C46.2706 103.079 45.6545 101.099 45.6545 98.9045C45.6545 96.7097 46.2706 94.7295 47.2588 93.3022C48.2473 91.8743 49.5976 91.0119 51.0709 91.0119C52.5441 91.0119 53.8945 91.8743 54.883 93.3022C55.8711 94.7295 56.4873 96.7097 56.4873 98.9045Z" stroke="black" stroke-opacity="0.48" stroke-width="0.31"/>
<ellipse cx="141.142" cy="98.9045" rx="5.57138" ry="8.04755" fill="#C9B095"/>
<path d="M146.558 98.9045C146.558 101.099 145.942 103.079 144.954 104.507C143.965 105.935 142.615 106.797 141.142 106.797C139.668 106.797 138.318 105.935 137.33 104.507C136.341 103.079 135.725 101.099 135.725 98.9045C135.725 96.7097 136.341 94.7295 137.33 93.3022C138.318 91.8743 139.668 91.0119 141.142 91.0119C142.615 91.0119 143.965 91.8743 144.954 93.3022C145.942 94.7295 146.558 96.7097 146.558 98.9045Z" stroke="black" stroke-opacity="0.48" stroke-width="0.31"/>
<path d="M86.0469 115.309H106.166V131.095H86.0469V115.309Z" fill="#BFA78E"/>
<path d="M86.2019 115.464H106.011V130.94H86.2019V115.464Z" stroke="black" stroke-opacity="0.48" stroke-width="0.31"/>
<path d="M51.0708 88.6904C51.0708 81.6817 56.7525 76 63.7612 76H128.451C135.46 76 141.141 81.6817 141.141 88.6904V109.273C141.141 115.713 136.316 121.133 129.919 121.878L97.4241 125.661C96.4456 125.775 95.4571 125.775 94.4787 125.66L62.2834 121.886C55.8902 121.136 51.0708 115.719 51.0708 109.282V88.6904Z" fill="#D4BA9F"/>
<path d="M63.7612 76.155H128.451C135.374 76.155 140.986 81.7673 140.986 88.6904V109.273C140.986 115.635 136.22 120.988 129.901 121.724L97.4062 125.507C96.4396 125.62 95.4632 125.62 94.4967 125.506L62.3015 121.732C55.9863 120.991 51.2258 115.64 51.2258 109.282V88.6904C51.2258 81.7673 56.8381 76.155 63.7612 76.155Z" stroke="#0C233A" stroke-opacity="0.5" stroke-width="0.31"/>
<circle cx="117.773" cy="94.1068" r="12.6904" fill="#D8E1ED" stroke="#0C233A" stroke-width="0.309521"/>
<circle cx="73.2016" cy="94.1068" r="12.6904" fill="#D8E1ED" stroke="#0C233A" stroke-width="0.309521"/>
<path d="M118.082 111.239C118.082 112.07 117.567 112.889 116.548 113.658C115.531 114.425 114.035 115.124 112.133 115.715C108.331 116.895 102.942 117.631 96.6148 117.631C90.2878 117.631 84.5655 116.902 80.4299 115.727C78.361 115.139 76.698 114.442 75.5557 113.675C74.4079 112.904 73.8208 112.086 73.8208 111.265C73.8208 110.81 73.8496 110.539 73.921 110.386C73.9533 110.316 73.9907 110.279 74.0335 110.258C74.0796 110.234 74.1482 110.22 74.2557 110.225C74.4769 110.237 74.7986 110.329 75.2763 110.488C75.4212 110.536 75.5794 110.59 75.7517 110.648C76.1373 110.78 76.5932 110.935 77.1265 111.103C80.2234 112.078 85.9763 113.501 96.6148 113.501C106.591 113.501 112.013 112.071 114.945 111.089C115.447 110.921 115.877 110.765 116.242 110.633C116.408 110.573 116.56 110.518 116.699 110.469C117.154 110.309 117.459 110.216 117.669 110.204C117.771 110.197 117.834 110.211 117.877 110.233C117.916 110.254 117.952 110.29 117.984 110.36C118.054 110.513 118.082 110.784 118.082 111.239Z" fill="#0C233A" stroke="#0C233A" stroke-width="0.309521"/>
<path d="M64.3804 137.595C64.3804 132.979 68.122 129.238 72.7374 129.238H119.475C124.091 129.238 127.832 132.979 127.832 137.595V165.761H64.3804V137.595Z" fill="#144C7E"/>
<path d="M72.7374 129.392H119.475C124.005 129.392 127.677 133.065 127.677 137.595V165.606H64.5351V137.595C64.5351 133.065 68.2074 129.392 72.7374 129.392Z" stroke="#0C233A" stroke-opacity="0.5" stroke-width="0.309521"/>
<line x1="73.3564" y1="139.309" x2="73.3564" y2="165.309" stroke="black" stroke-width="0.619042"/>
<line x1="117.927" y1="139.309" x2="117.927" y2="165.309" stroke="black" stroke-width="0.619042"/>
<circle cx="73.8206" cy="98.1307" r="4.17853" fill="#0C233A"/>
<circle cx="116.844" cy="98.1307" r="4.17853" fill="#0C233A"/>
<line x1="100.904" y1="105.404" x2="90.9943" y2="105.404" stroke="#0C233A" stroke-width="0.928563"/>
<line x1="60.5" y1="165.5" x2="131.5" y2="165.5" stroke="black" stroke-linecap="round"/>
<path d="M65.85 24C65.85 37.1425 52.5187 47.85 36 47.85C19.4813 47.85 6.15 37.1425 6.15 24C6.15 10.8575 19.4813 0.15 36 0.15C52.5187 0.15 65.85 10.8575 65.85 24Z" fill="#F2A652" stroke="#34A075" stroke-width="0.3"/>
<path d="M58.85 52C58.85 53.3103 57.9998 54.5193 56.5774 55.4083C55.157 56.296 53.1855 56.85 51 56.85C48.8145 56.85 46.843 56.296 45.4226 55.4083C44.0002 54.5193 43.15 53.3103 43.15 52C43.15 50.6897 44.0002 49.4807 45.4226 48.5917C46.843 47.704 48.8145 47.15 51 47.15C53.1855 47.15 55.157 47.704 56.5774 48.5917C57.9998 49.4807 58.85 50.6897 58.85 52Z" fill="#F2A652" stroke="#34A075" stroke-width="0.3"/>
<path d="M61.85 61C61.85 61.755 61.3391 62.4642 60.4584 62.9927C59.5806 63.5194 58.3582 63.85 57 63.85C55.6418 63.85 54.4194 63.5194 53.5416 62.9927C52.6609 62.4642 52.15 61.755 52.15 61C52.15 60.245 52.6609 59.5358 53.5416 59.0073C54.4194 58.4806 55.6418 58.15 57 58.15C58.3582 58.15 59.5806 58.4806 60.4584 59.0073C61.3391 59.5358 61.85 60.245 61.85 61Z" fill="#F2A652" stroke="#34A075" stroke-width="0.3"/>
<path d="M63.85 66.5C63.85 66.8408 63.619 67.175 63.1906 67.432C62.7652 67.6873 62.1678 67.85 61.5 67.85C60.8322 67.85 60.2348 67.6873 59.8094 67.432C59.381 67.175 59.15 66.8408 59.15 66.5C59.15 66.1592 59.381 65.825 59.8094 65.568C60.2348 65.3127 60.8322 65.15 61.5 65.15C62.1678 65.15 62.7652 65.3127 63.1906 65.568C63.619 65.825 63.85 66.1592 63.85 66.5Z" fill="#F2A652" stroke="#34A075" stroke-width="0.3"/>
<path d="M35.9509 22.342V24.8431H26.2355V22.342H35.9509ZM27.0148 14.7005V33H23.8601V14.7005H27.0148ZM38.3766 14.7005V33H35.2345V14.7005H38.3766ZM45.0755 19.401V33H42.034V19.401H45.0755ZM41.8329 15.8316C41.8329 15.3708 41.9837 14.9895 42.2853 14.6879C42.5954 14.3779 43.0227 14.2229 43.5673 14.2229C44.1036 14.2229 44.5267 14.3779 44.8367 14.6879C45.1467 14.9895 45.3017 15.3708 45.3017 15.8316C45.3017 16.2841 45.1467 16.6611 44.8367 16.9628C44.5267 17.2644 44.1036 17.4152 43.5673 17.4152C43.0227 17.4152 42.5954 17.2644 42.2853 16.9628C41.9837 16.6611 41.8329 16.2841 41.8329 15.8316ZM48.5192 31.4918C48.5192 31.0226 48.6784 30.6288 48.9968 30.3104C49.3152 29.9836 49.7467 29.8202 50.2914 29.8202C50.8444 29.8202 51.2759 29.9836 51.5859 30.3104C51.9043 30.6288 52.0635 31.0226 52.0635 31.4918C52.0635 31.961 51.9043 32.3548 51.5859 32.6732C51.2759 32.9916 50.8444 33.1508 50.2914 33.1508C49.7467 33.1508 49.3152 32.9916 48.9968 32.6732C48.6784 32.3548 48.5192 31.961 48.5192 31.4918ZM55.6832 31.4918C55.6832 31.0226 55.8424 30.6288 56.1608 30.3104C56.4792 29.9836 56.9107 29.8202 57.4553 29.8202C58.0083 29.8202 58.4399 29.9836 58.7499 30.3104C59.0683 30.6288 59.2275 31.0226 59.2275 31.4918C59.2275 31.961 59.0683 32.3548 58.7499 32.6732C58.4399 32.9916 58.0083 33.1508 57.4553 33.1508C56.9107 33.1508 56.4792 32.9916 56.1608 32.6732C55.8424 32.3548 55.6832 31.961 55.6832 31.4918Z" fill="white"/>
</svg>
