<?xml version="1.0" encoding="UTF-8" ?>
<!DOCTYPE svg PUBLIC "-//W3C//DTD SVG 1.1//EN" "http://www.w3.org/Graphics/SVG/1.1/DTD/svg11.dtd">
<svg width="1192pt" height="416pt" viewBox="0 0 1192 416" version="1.1" xmlns="http://www.w3.org/2000/svg">
<g id="#d8e1edff">
<path fill="#d8e1ed" opacity="1.00" d=" M 96.82 46.62 C 119.29 37.38 143.90 35.29 167.95 35.09 C 228.99 35.06 290.02 34.98 351.05 35.05 C 372.99 35.20 395.01 35.62 416.76 38.75 C 423.60 39.85 430.44 41.09 437.09 43.06 C 440.19 44.08 443.58 45.10 445.61 47.86 C 440.98 64.00 436.46 80.18 431.86 96.34 C 423.60 95.32 415.29 94.91 406.99 94.44 C 327.06 90.32 247.00 90.63 167.00 90.56 C 156.11 90.48 145.01 91.17 134.68 94.86 C 127.43 97.43 120.62 101.81 116.22 108.22 C 111.39 115.11 109.71 123.71 109.78 132.00 C 109.79 181.33 109.76 230.66 109.79 279.99 C 109.86 289.59 112.54 299.58 119.15 306.78 C 124.25 312.67 131.72 315.81 139.16 317.55 C 148.26 319.68 157.66 320.05 166.98 320.00 C 243.52 319.95 320.09 320.06 396.57 316.88 C 412.43 316.11 428.32 315.61 444.09 313.65 C 453.46 326.45 462.79 339.29 472.17 352.08 C 470.22 355.21 466.93 357.04 463.83 358.83 C 454.69 364.12 444.19 366.24 433.97 368.39 C 412.58 372.74 390.73 374.24 368.95 374.96 C 342.63 375.83 316.30 375.39 289.98 375.50 C 248.67 375.50 207.36 375.50 166.05 375.50 C 144.41 375.13 122.47 373.76 101.70 367.26 C 84.17 361.77 67.35 351.38 57.76 335.31 C 47.00 316.85 43.96 295.02 43.62 273.97 C 43.60 229.66 43.61 185.36 43.62 141.05 C 43.92 118.84 47.61 95.79 59.78 76.78 C 68.45 63.03 81.83 52.66 96.82 46.62 Z" />
<path fill="#d8e1ed" opacity="1.00" d=" M 548.88 128.09 C 562.42 128.09 575.96 128.09 589.50 128.10 C 589.50 142.81 589.50 157.53 589.50 172.25 C 604.59 170.58 619.77 169.76 634.96 169.62 C 643.49 169.62 652.23 169.10 660.51 171.59 C 666.95 173.48 672.81 178.09 675.30 184.44 C 677.79 191.01 678.32 198.12 678.25 205.09 C 678.21 216.04 678.33 227.00 678.19 237.96 C 677.76 247.03 675.36 257.00 667.86 262.86 C 660.72 268.88 650.88 269.60 641.95 269.51 C 623.46 269.59 604.97 268.56 586.61 266.39 C 583.85 267.63 581.28 269.89 578.07 269.52 C 568.34 269.48 558.61 269.51 548.88 269.50 C 548.87 222.36 548.87 175.23 548.88 128.09 M 589.50 199.49 C 589.51 211.32 589.49 223.16 589.51 234.99 C 589.68 236.74 589.39 238.89 590.72 240.27 C 592.30 241.16 594.20 241.04 595.97 241.15 C 605.97 241.17 615.96 241.15 625.96 241.16 C 628.97 241.13 632.31 240.79 634.62 238.62 C 636.43 236.96 636.95 234.40 636.95 232.04 C 637.00 223.67 636.94 215.31 636.98 206.94 C 636.96 204.48 636.94 201.64 635.03 199.81 C 633.10 198.11 630.36 197.93 627.92 197.76 C 615.09 197.50 602.27 198.28 589.50 199.49 Z" />
<path fill="#d8e1ed" opacity="1.00" d=" M 702.82 138.12 C 732.87 138.12 762.92 138.12 792.96 138.12 C 804.34 138.19 815.87 137.57 827.07 140.10 C 836.45 142.12 845.88 146.29 851.97 153.97 C 858.24 161.81 860.27 172.14 860.30 181.96 C 860.30 196.98 860.37 211.99 860.26 227.00 C 860.08 238.50 856.62 250.90 847.31 258.35 C 836.31 267.10 821.64 268.99 808.03 269.25 C 773.70 269.33 739.38 269.26 705.06 269.28 C 705.06 232.18 705.06 195.07 705.06 157.97 C 704.77 151.31 703.51 144.74 702.82 138.12 M 748.56 168.48 C 748.56 191.81 748.56 215.14 748.56 238.47 C 765.36 238.47 782.15 238.47 798.94 238.47 C 803.69 238.48 808.89 237.81 812.55 234.49 C 816.01 231.38 817.03 226.49 817.00 222.02 C 816.99 209.32 817.02 196.62 816.99 183.93 C 817.00 179.50 815.40 174.92 812.08 171.90 C 808.49 168.89 803.57 168.50 799.08 168.47 C 782.24 168.48 765.40 168.47 748.56 168.48 Z" />
<path fill="#d8e1ed" opacity="1.00" d=" M 139.48 138.59 C 155.32 138.59 171.17 138.59 187.02 138.59 C 196.18 169.83 206.15 200.86 214.50 232.32 C 215.03 232.40 216.08 232.54 216.60 232.61 C 217.75 227.75 218.69 222.84 219.97 218.01 C 227.48 191.54 234.99 165.06 242.51 138.59 C 259.61 138.59 276.72 138.59 293.83 138.59 C 303.37 169.87 312.39 201.32 322.27 232.49 C 322.77 232.48 323.78 232.45 324.28 232.43 C 332.69 201.13 341.25 169.86 349.77 138.59 C 365.39 138.59 381.01 138.59 396.64 138.59 C 395.67 143.42 395.34 148.39 393.96 153.12 C 378.81 191.91 363.64 230.70 348.48 269.50 C 331.37 269.51 314.26 269.49 297.15 269.51 C 289.91 247.51 282.71 225.49 275.47 203.49 C 272.61 195.40 271.12 186.92 269.02 178.62 C 268.50 178.69 267.45 178.83 266.92 178.90 C 264.78 186.50 263.79 194.42 261.18 201.90 C 253.84 224.43 246.53 246.97 239.20 269.50 C 221.87 269.51 204.54 269.49 187.21 269.51 C 171.29 225.87 155.38 182.23 139.48 138.59 Z" />
<path fill="#d8e1ed" opacity="1.00" d=" M 412.99 176.92 C 419.84 171.04 429.23 169.76 437.94 169.61 C 454.99 169.60 472.03 169.55 489.07 169.63 C 499.47 169.99 510.76 171.05 519.17 177.84 C 525.80 183.09 527.97 191.97 528.42 200.03 C 528.61 210.41 528.45 220.78 528.50 231.16 C 509.67 231.08 490.84 231.35 472.02 230.93 C 462.79 230.77 453.62 229.71 444.42 229.16 C 444.51 232.14 443.98 235.52 445.94 238.06 C 447.82 240.53 451.12 241.24 454.07 241.34 C 475.24 241.58 496.43 240.86 517.54 239.15 C 522.10 246.40 526.77 253.58 531.21 260.90 C 529.47 263.72 526.42 265.25 523.32 266.09 C 512.81 269.02 501.81 269.32 490.97 269.49 C 475.98 269.51 460.99 269.49 446.00 269.50 C 434.85 269.52 422.44 269.96 413.09 262.87 C 405.65 257.46 403.63 247.73 403.21 239.08 C 403.03 226.70 403.15 214.31 403.14 201.93 C 403.34 192.87 405.58 182.86 412.99 176.92 M 446.04 201.05 C 444.11 203.51 444.49 206.79 444.39 209.71 C 458.68 209.72 472.96 209.72 487.25 209.71 C 487.12 206.61 487.45 203.38 486.43 200.40 C 485.42 198.52 482.99 198.36 481.13 198.11 C 472.76 197.46 464.37 197.81 455.99 197.71 C 452.48 197.68 448.35 198.05 446.04 201.05 Z" />
<path fill="#d8e1ed" opacity="1.00" d=" M 898.79 171.98 C 905.28 169.81 912.20 169.53 918.99 169.59 C 934.98 169.64 950.98 169.50 966.97 169.66 C 977.09 170.06 988.04 171.24 996.19 177.86 C 1002.81 183.12 1004.97 191.98 1005.42 200.05 C 1005.61 210.41 1005.45 220.79 1005.50 231.16 C 977.46 231.01 949.36 231.93 921.42 229.16 C 921.51 232.14 920.98 235.52 922.94 238.06 C 924.80 240.50 928.05 241.23 930.98 241.34 C 952.20 241.61 973.43 240.82 994.59 239.17 C 999.09 246.42 1003.76 253.58 1008.21 260.87 C 1005.70 265.05 1000.61 266.12 996.22 267.11 C 980.71 270.26 964.78 269.33 949.05 269.50 C 936.38 269.41 923.70 269.69 911.04 269.35 C 901.05 268.94 889.82 265.78 884.48 256.58 C 878.46 245.36 880.50 232.20 880.12 219.99 C 880.50 209.15 878.80 197.89 882.65 187.48 C 885.11 180.07 891.51 174.45 898.79 171.98 M 923.93 200.09 C 921.14 202.45 921.41 206.41 921.39 209.71 C 935.68 209.72 949.96 209.72 964.25 209.71 C 963.74 206.10 965.56 199.89 960.84 198.58 C 952.96 197.22 944.90 197.91 936.95 197.71 C 932.58 197.83 927.53 197.05 923.93 200.09 Z" />
<path fill="#d8e1ed" opacity="1.00" d=" M 1014.21 169.59 C 1029.16 169.59 1044.12 169.59 1059.07 169.59 C 1068.13 193.14 1077.52 216.57 1086.14 240.27 C 1086.65 240.27 1087.66 240.26 1088.17 240.26 C 1096.76 216.52 1106.33 193.14 1115.44 169.60 C 1130.25 169.58 1145.06 169.59 1159.87 169.59 C 1158.39 174.58 1157.60 179.81 1155.58 184.61 C 1141.02 212.91 1126.49 241.22 1111.91 269.51 C 1095.47 269.49 1079.03 269.51 1062.59 269.50 C 1046.47 236.20 1030.33 202.90 1014.21 169.59 Z" />
<path fill="#d8e1ed" opacity="1.00" d=" M 485.35 286.53 C 494.29 286.53 503.24 286.53 512.19 286.53 C 512.19 316.02 512.19 345.51 512.19 375.00 C 503.71 375.00 495.23 375.00 486.75 375.00 C 486.75 349.98 486.74 324.96 486.76 299.95 C 486.72 295.44 485.81 291.00 485.35 286.53 Z" />
<path fill="#d8e1ed" opacity="1.00" d=" M 617.84 286.53 C 626.32 286.53 634.80 286.53 643.28 286.53 C 643.28 295.74 643.28 304.94 643.28 314.15 C 655.77 312.85 668.35 312.23 680.91 312.61 C 686.87 312.82 693.55 314.98 696.43 320.65 C 699.70 327.64 698.61 335.56 698.81 343.03 C 698.60 350.74 699.83 358.98 696.19 366.13 C 693.35 371.70 687.10 374.60 681.06 374.86 C 667.83 375.38 654.59 374.48 641.44 373.10 C 639.72 373.86 638.11 375.19 636.14 375.01 C 630.04 375.01 623.94 374.99 617.84 375.00 C 617.84 345.51 617.84 316.02 617.84 286.53 M 643.28 331.21 C 643.32 338.79 643.22 346.37 643.32 353.95 C 643.45 355.06 643.30 357.12 645.00 357.03 C 651.98 357.58 659.02 357.16 666.03 357.27 C 668.89 357.47 672.62 356.21 672.85 352.86 C 673.08 346.60 673.02 340.31 672.88 334.05 C 672.92 331.43 670.27 330.14 667.99 330.18 C 659.74 329.87 651.49 330.47 643.28 331.21 Z" />
<path fill="#d8e1ed" opacity="1.00" d=" M 525.65 312.50 C 534.23 312.49 542.80 312.50 551.38 312.50 C 551.39 325.67 551.34 338.85 551.40 352.02 C 551.09 355.16 554.06 357.50 557.04 357.34 C 563.94 357.34 570.89 357.74 577.77 357.04 C 578.57 342.22 577.90 327.34 578.12 312.50 C 586.73 312.50 595.33 312.50 603.94 312.50 C 603.94 333.33 603.94 354.16 603.94 375.00 C 597.21 374.93 590.48 375.14 583.77 374.91 C 581.87 374.24 580.17 373.14 578.40 372.24 C 566.72 374.49 554.79 375.46 542.91 374.86 C 538.08 374.56 532.87 373.26 529.63 369.39 C 526.31 365.41 525.88 359.92 525.67 354.96 C 525.62 340.81 525.67 326.65 525.65 312.50 Z" />
</g>
</svg>
